<svg id="Laag_1" data-name="Laag 1" xmlns="http://www.w3.org/2000/svg" viewBox="0 0 200 200"><defs><style>.cls-1{fill:#fff;}</style></defs><path d="M99.9,100.52c-2.75,2.6-5.28,5.1-7.93,7.47A160.57,160.57,0,0,1,73.6,122.18a42.06,42.06,0,0,0-10.53,10.08c-1.27,1.71-2.57,3.41-4,5a11.07,11.07,0,0,1-10.63,3.66c-1.78-.29-2.72-1.61-3.44-3.1s-.63-1.36-2.2-1.18a22.23,22.23,0,0,1-8.29-.29c-4.68-1.26-7.63-4.39-9.29-8.8a30.44,30.44,0,0,1-1.72-13.34c.22-2.76,1.37-5.31,2.43-7.85A210.56,210.56,0,0,1,36.53,85Q43.27,72.9,50.27,60.93a41.33,41.33,0,0,1,3.58-4.41,26.68,26.68,0,0,0,4.64-8.06,2,2,0,0,0-.14-1.75,13.76,13.76,0,0,1-1.76-6.56c-.05-2.34.06-4.68.11-7a3.16,3.16,0,0,1,1.15-2.3,5.87,5.87,0,0,1,6.31-1.15,12.39,12.39,0,0,1,4.49,3,43.1,43.1,0,0,1,6.14,7.83,1.06,1.06,0,0,0,1,.59c1.2,0,2.4,0,3.59,0a.93.93,0,0,0,.95-.58,32,32,0,0,1,9.33-11l1-.66a5,5,0,0,1,6.88,1,13,13,0,0,1,2.68,6.38c.32,1.71.52,3.44.78,5.21,1.67.26,3.39.49,5.1.78a73.8,73.8,0,0,1,27.77,10.3,65.76,65.76,0,0,1,22,24,110.58,110.58,0,0,1,10.77,29.12,203.59,203.59,0,0,1,4.41,29.48,353.37,353.37,0,0,1,.92,38,3.33,3.33,0,0,1-3.68,3.43H67.25c-2.66,0-4-1.34-3.93-4a41.42,41.42,0,0,1,4.3-18.58,51.31,51.31,0,0,1,9.64-12.57c3.56-3.57,7.21-7,10.64-10.75a44,44,0,0,0,11.42-24.86C99.54,104,99.7,102.33,99.9,100.52Zm66.35,74.77c.05-.38.11-.71.13-1,.12-2.57.27-5.14.36-7.71.56-17.07,0-34.09-2.85-51a138.32,138.32,0,0,0-6.71-25.65c-3.51-9.34-8.09-18.06-14.73-25.59-7.75-8.79-17.18-14.8-28.75-17.22-1.54-.32-3.1-.57-4.68-.86-.67,2.17-1.32,4.26-2,6.38,1.69.55,3.29,1.06,4.88,1.6a51.32,51.32,0,0,1,22.38,14.34,74.1,74.1,0,0,1,11.16,17c5.49,11.27,8.33,23.29,9.81,35.65.69,5.83,1.12,11.69,1.46,17.55.53,9.25.39,18.5,0,27.76-.11,2.9-.26,5.8-.4,8.75ZM71.58,65c0-3.53-1.91-5.55-4.65-5.34a6.15,6.15,0,0,0-3.65,1.77,20.2,20.2,0,0,0-5.17,7.86,10.16,10.16,0,0,0-.78,4.87A4.16,4.16,0,0,0,62.5,77.9a7.24,7.24,0,0,0,2.62-1.3,17.82,17.82,0,0,0,5-6.74A12.77,12.77,0,0,0,71.58,65ZM40.06,107.7a5.52,5.52,0,0,0-5.57,5.51,5.54,5.54,0,1,0,5.57-5.51Z"/><path class="cls-1" d="M166.25,175.29h-9.87c.14-2.95.29-5.85.4-8.75.35-9.26.49-18.51,0-27.76-.34-5.86-.77-11.72-1.46-17.55-1.48-12.36-4.32-24.38-9.81-35.65a74.1,74.1,0,0,0-11.16-17,51.32,51.32,0,0,0-22.38-14.34c-1.59-.54-3.19-1-4.88-1.6.65-2.12,1.3-4.21,2-6.38,1.58.29,3.14.54,4.68.86,11.57,2.42,21,8.43,28.75,17.22,6.64,7.53,11.22,16.25,14.73,25.59a138.32,138.32,0,0,1,6.71,25.65c2.85,16.88,3.41,33.9,2.85,51-.09,2.57-.24,5.14-.36,7.71C166.36,174.58,166.3,174.91,166.25,175.29Z"/><path class="cls-1" d="M71.58,65a12.77,12.77,0,0,1-1.44,4.83,17.82,17.82,0,0,1-5,6.74,7.24,7.24,0,0,1-2.62,1.3,4.16,4.16,0,0,1-5.17-3.71,10.16,10.16,0,0,1,.78-4.87,20.2,20.2,0,0,1,5.17-7.86,6.15,6.15,0,0,1,3.65-1.77C69.67,59.48,71.61,61.5,71.58,65Z"/><path class="cls-1" d="M40.06,107.7a5.54,5.54,0,0,1,5.51,5.5,5.54,5.54,0,1,1-11.08,0A5.52,5.52,0,0,1,40.06,107.7Z"/></svg>