<svg id="Laag_1" data-name="Laag 1" xmlns="http://www.w3.org/2000/svg" viewBox="0 0 200 200"><defs><style>.cls-1{fill:#fff;}</style></defs><path d="M82.11,75.65c-.09-1.13-.15-2.11-.23-3.1-.44-5.57,1.45-10.4,4.68-14.82a19.05,19.05,0,0,1,7.83-6.59,4.58,4.58,0,0,1,1.17-.43c.8-.12,1-.52,1-1.31-.05-3.18,0-6.35,0-9.52V39c-.33,0-.61,0-.88,0H89.08a3.35,3.35,0,0,1-3.65-3.3c0-2,1.49-3.36,3.68-3.37h7.41V28.61c0-.67,0-1.35,0-2a3.3,3.3,0,0,1,6.6,0c0,1.56,0,3.12,0,4.68v.91l.89,0c2.29,0,4.58,0,6.87,0a3.28,3.28,0,0,1,3.18,2.31A3.14,3.14,0,0,1,113,38.18a4.44,4.44,0,0,1-2.17.71c-2.23.09-4.46,0-6.7,0h-.88c0,.28,0,.48,0,.68,0,3.38,0,6.76,0,10.14,0,.26.19.69.39.75a18.36,18.36,0,0,1,9.66,7.39,23.13,23.13,0,0,1,4.33,9.65,28.31,28.31,0,0,1,0,7.47c0,.17,0,.35,0,.63l.84-.52a45.43,45.43,0,0,1,19.06-7.25c15-1.86,27.09,3.27,35.46,16,4.61,7,5.08,14.81,2.36,22.73a39.5,39.5,0,0,1-9.11,14.28,76.91,76.91,0,0,1-17.66,13.73,1.66,1.66,0,0,0-1,1.68c0,9.28,0,18.56,0,27.84a3.42,3.42,0,0,1-1.76,3.09,79,79,0,0,1-26.23,10.09A99.82,99.82,0,0,1,93,179a86.93,86.93,0,0,1-33.89-8.86c-1.8-.92-3.55-2-5.29-3a3.3,3.3,0,0,1-1.67-3q0-14,0-28.08a1.29,1.29,0,0,0-.73-1.28,75,75,0,0,1-19.55-15.68,36.13,36.13,0,0,1-8.37-15.55A25.15,25.15,0,0,1,26,85a33.61,33.61,0,0,1,15.1-14.09c8.77-4.18,17.83-4.37,27.05-1.81a47.6,47.6,0,0,1,13.25,6.1ZM96.52,119.9v-1c0-4.34,0-8.68,0-13a6,6,0,0,0-.35-2,46.09,46.09,0,0,0-9.82-16C79.16,80.45,70.6,75.44,60.1,74.33s-19.21,2.31-26,10.52A19.33,19.33,0,0,0,30,102a27.85,27.85,0,0,0,6.09,11.71c5.3,6.45,11.88,11.36,19.07,15.5a1.12,1.12,0,0,0,.84,0c1.07-.47,2.1-1,3.17-1.47a97.85,97.85,0,0,1,32.62-7.51C93.32,120.08,94.88,120,96.52,119.9Zm6.63,0c.48,0,.9,0,1.31.09,4.11.37,8.24.59,12.33,1.15a87.52,87.52,0,0,1,26.9,8,1.19,1.19,0,0,0,1,0,72.61,72.61,0,0,0,15.49-11.61,36.16,36.16,0,0,0,8.56-12.32c2.28-5.8,2.18-11.61-.89-17A27,27,0,0,0,152.42,75.6c-7.67-2.52-15.27-1.85-22.63,1.14-12.83,5.2-21.44,14.56-26.35,27.42a4.51,4.51,0,0,0-.28,1.59c0,4.39,0,8.78,0,13.18ZM62.69,164.45c10,5.15,26.17,9.27,44.53,7.83a81.63,81.63,0,0,0,29.82-7.8,94.82,94.82,0,0,0-33.88-6.82C89.29,157.28,75.79,159.14,62.69,164.45Zm78.15-21.33c0,.06,0,0,0-.08,0-2.47,0-4.94,0-7.41a.94.94,0,0,0-.48-.65c-1.45-.69-2.9-1.38-4.4-2a92.53,92.53,0,0,0-27.71-6.13,108.35,108.35,0,0,0-32.52,2.37,77.55,77.55,0,0,0-16.23,5.61,1,1,0,0,0-.71,1.1c.05,1.09,0,2.18,0,3.28v3.9Q99.89,127.59,140.84,143.12Zm0,15.53c0-2.23,0-4.59,0-6.94a1.28,1.28,0,0,0-.86-1.41,87.56,87.56,0,0,0-28.75-7.64,109.84,109.84,0,0,0-18.76-.34,102.09,102.09,0,0,0-19.8,3.21,71.35,71.35,0,0,0-13.26,4.91c-.26.13-.62.42-.62.64,0,2.57,0,5.14,0,7.57Q99.87,143.11,140.87,158.65ZM99.8,95.7c.13-.19.2-.26.24-.34a55.26,55.26,0,0,1,8.75-12.27,1.92,1.92,0,0,0,.44-.89c.61-2.73,1.33-5.45,1.75-8.21a14.06,14.06,0,0,0-1.14-8.81c-1.47-2.86-3.18-5.49-5.94-7.27A7.1,7.1,0,0,0,97.72,57a10.39,10.39,0,0,0-4.92,3.56c-3,3.63-4.79,7.65-4.24,12.53a54.1,54.1,0,0,0,1.94,9.35,2.45,2.45,0,0,0,.49.78c.85,1,1.74,1.93,2.56,2.94A53.21,53.21,0,0,1,99.8,95.7Z"/><path class="cls-1" d="M96.52,119.9c-1.64.1-3.2.18-4.75.29a97.85,97.85,0,0,0-32.62,7.51c-1.07.46-2.1,1-3.17,1.47a1.12,1.12,0,0,1-.84,0c-7.19-4.14-13.77-9.05-19.07-15.5A27.85,27.85,0,0,1,30,102a19.33,19.33,0,0,1,4.16-17.15c6.75-8.21,15.49-11.63,26-10.52S79.16,80.45,86.33,88a46.09,46.09,0,0,1,9.82,16,6,6,0,0,1,.35,2c0,4.34,0,8.68,0,13Z"/><path class="cls-1" d="M103.15,119.91v-1c0-4.4,0-8.79,0-13.18a4.51,4.51,0,0,1,.28-1.59C108.35,91.3,117,81.94,129.79,76.74c7.36-3,15-3.66,22.63-1.14a27,27,0,0,1,15.39,12.61c3.07,5.39,3.17,11.2.89,17a36.16,36.16,0,0,1-8.56,12.32,72.61,72.61,0,0,1-15.49,11.61,1.19,1.19,0,0,1-1,0,87.52,87.52,0,0,0-26.9-8c-4.09-.56-8.22-.78-12.33-1.15C104.05,120,103.63,119.94,103.15,119.91Z"/><path class="cls-1" d="M62.69,164.45c13.1-5.31,26.6-7.17,40.47-6.79A94.82,94.82,0,0,1,137,164.48a81.63,81.63,0,0,1-29.82,7.8C88.86,173.72,72.66,169.6,62.69,164.45Z"/><path class="cls-1" d="M140.84,143.12q-41-15.56-82,0v-3.9c0-1.1,0-2.19,0-3.28a1,1,0,0,1,.71-1.1,77.55,77.55,0,0,1,16.23-5.61,108.35,108.35,0,0,1,32.52-2.37A92.53,92.53,0,0,1,136,133c1.5.6,2.95,1.29,4.4,2a.94.94,0,0,1,.48.65c0,2.47,0,4.94,0,7.41C140.86,143.11,140.82,143.18,140.84,143.12Z"/><path class="cls-1" d="M140.87,158.65q-41.07-15.57-82.07,0c0-2.43,0-5,0-7.57,0-.22.36-.51.62-.64a71.35,71.35,0,0,1,13.26-4.91,102.09,102.09,0,0,1,19.8-3.21,109.84,109.84,0,0,1,18.76.34A87.56,87.56,0,0,1,140,150.3a1.28,1.28,0,0,1,.86,1.41C140.84,154.06,140.87,156.42,140.87,158.65Z"/><path class="cls-1" d="M99.8,95.7a53.21,53.21,0,0,0-6.25-9.54c-.82-1-1.71-2-2.56-2.94a2.45,2.45,0,0,1-.49-.78,54.1,54.1,0,0,1-1.94-9.35c-.55-4.88,1.23-8.9,4.24-12.53A10.39,10.39,0,0,1,97.72,57a7.1,7.1,0,0,1,6.18.91c2.76,1.78,4.47,4.41,5.94,7.27A14.06,14.06,0,0,1,111,74c-.42,2.76-1.14,5.48-1.75,8.21a1.92,1.92,0,0,1-.44.89A55.26,55.26,0,0,0,100,95.36C100,95.44,99.93,95.51,99.8,95.7Z"/></svg>