<svg id="Laag_1" data-name="Laag 1" xmlns="http://www.w3.org/2000/svg" viewBox="0 0 200 200"><defs><style>.cls-1{fill:#fff;}</style></defs><path d="M86.33,153.06c-2.3-.45-4.53-.82-6.73-1.33a36,36,0,0,1-12.71-5.12,35.1,35.1,0,0,1-2.74-2.3,1.21,1.21,0,0,1-.32-.43c-1.06-3.11-1.84-6.25-1-9.55.65-2.77,1.2-5.58,2.1-8.27A23.75,23.75,0,0,1,71,116.88l.2-.22c-1.56-1.21-3.21-2.3-4.64-3.62a27.31,27.31,0,0,1-8.49-16.36C56.6,87,59,78.15,64,69.92A56.74,56.74,0,0,1,83.22,51.23c2.5-1.53,5.11-2.89,7.7-4.34a14.29,14.29,0,0,1-5.17-12.81,13.88,13.88,0,0,1,5-9.34,14.45,14.45,0,1,1,18.52,22.18c2.15,1.18,4.35,2.29,6.47,3.55A59.1,59.1,0,0,1,134.91,68a41.51,41.51,0,0,1,7.39,19.63c.82,8.66-1,16.6-6.74,23.39a24,24,0,0,1-6.57,5.42c1.49,2,3.1,3.86,4.45,5.91a19.68,19.68,0,0,1,3.19,9.51,1.73,1.73,0,0,0,.11.6c1.47,3.24,1,6.49.15,9.77a6.2,6.2,0,0,1-2.28,3.42,28.59,28.59,0,0,1-10.5,5.14c-3.1.84-6.28,1.4-9.43,2.08a1.46,1.46,0,0,0-.75.35c2.18.29,4.36.64,6.55.87,7.2.75,14.44.67,21.67.81a118,118,0,0,1,14.54,1c5.4.77,10,3.22,14.26,6.44a52.07,52.07,0,0,1,4.64,4.15,3.26,3.26,0,0,1,.28,4.58c-3.13,4.23-7.38,5.44-12.35,4.47-2.06-.4-4.05-1.14-6.1-1.6a51.63,51.63,0,0,0-11.63-1.08c-8.06,0-16.12.22-24.19.26a76.8,76.8,0,0,1-16.29-1.39c-1.59-.34-3.15-.85-4.73-1.26a1.63,1.63,0,0,0-.9,0A49.78,49.78,0,0,1,84,172.93c-8.45.09-16.9-.06-25.35-.12a79,79,0,0,0-13.23.66c-2.45.4-4.84,1.14-7.26,1.74a14.79,14.79,0,0,1-8,.11,11.05,11.05,0,0,1-6.12-4.7,3.16,3.16,0,0,1,.37-4A37,37,0,0,1,38.89,157a30.8,30.8,0,0,1,9.19-1.6c6.86-.28,13.72-.45,20.58-.64a106.32,106.32,0,0,0,17.46-1.57ZM100,112.27c7,0,13.94,0,20.91,0a5.43,5.43,0,0,0,1.75-.28A18.58,18.58,0,0,0,134,101c2.54-6.18,2.39-12.48.51-18.79a41.28,41.28,0,0,0-12-18.54,66.68,66.68,0,0,0-21.87-13.1,1.88,1.88,0,0,0-1.25.1,72.28,72.28,0,0,0-16.38,8.75A47.29,47.29,0,0,0,68.31,75.8c-3.48,6.71-5,13.77-3.34,21.27,1.24,5.64,4.08,10.26,9.11,13.32a10.47,10.47,0,0,0,5.52,1.9C86.41,112.24,93.23,112.27,100,112.27ZM31.67,168.85c.41.11.66.19.91.23,2,.32,3.79-.35,5.66-.81a67.33,67.33,0,0,1,7.15-1.52,108.71,108.71,0,0,1,16-.56c8.55.13,17.11.6,25.65-.1a38.1,38.1,0,0,0,11.69-2.48,3.33,3.33,0,0,1,2.66,0,36.6,36.6,0,0,0,10.06,2.31,126.62,126.62,0,0,0,15,.49c8.37-.05,16.74-.61,25.11,0a44.84,44.84,0,0,1,10.64,1.89,27.52,27.52,0,0,0,4.34.85,8,8,0,0,0,2-.26c-4.78-4.14-10-6.58-16.12-6.85-4.78-.21-9.56-.46-14.34-.56-7.12-.16-14.25-.17-21.33-1.16-5.69-.8-11.22-2.14-16.29-5a.88.88,0,0,0-.76,0,45,45,0,0,1-16.06,4.95,154.12,154.12,0,0,1-18,1.13c-6,.14-11.9.32-17.85.63a22.37,22.37,0,0,0-10.29,2.77A37.89,37.89,0,0,0,31.67,168.85ZM129.53,130a.52.52,0,0,0,0-.21c-.06-.22-.12-.45-.2-.67-1.45-4.22-4.31-7.35-7.8-10a1.51,1.51,0,0,0-.88-.2q-20.59,0-41.18,0a1.63,1.63,0,0,0-1.06.35c-1.64,1.54-3.33,3.05-4.82,4.74a14.05,14.05,0,0,0-3,5.95Zm1.62,6.76H69.09c.09.8.18,1.53.26,2.27a2.83,2.83,0,0,0,1.46,2.23,29,29,0,0,0,7.63,3.29,78.72,78.72,0,0,0,21,2.67,80.11,80.11,0,0,0,21.69-2.52,26.72,26.72,0,0,0,8.53-3.72c.29-.21.68-.44.76-.74C130.75,139.14,130.92,138,131.15,136.77ZM100.07,43.46a7.76,7.76,0,1,0-7.77-7.79A7.78,7.78,0,0,0,100.07,43.46Z"/><path class="cls-1" d="M100,112.27c-6.81,0-13.63,0-20.44,0a10.47,10.47,0,0,1-5.52-1.9c-5-3.06-7.87-7.68-9.11-13.32-1.64-7.5-.14-14.56,3.34-21.27A47.29,47.29,0,0,1,82.92,59.42,72.28,72.28,0,0,1,99.3,50.67a1.88,1.88,0,0,1,1.25-.1,66.68,66.68,0,0,1,21.87,13.1,41.28,41.28,0,0,1,12,18.54c1.88,6.31,2,12.61-.51,18.79a18.58,18.58,0,0,1-11.25,11,5.43,5.43,0,0,1-1.75.28C114,112.28,107,112.27,100,112.27Zm3.35-28.85h7.41a5.25,5.25,0,0,0,1.31-.13,3.27,3.27,0,0,0,2.35-3.66,3.22,3.22,0,0,0-3.15-2.82c-2.34,0-4.68,0-7,0-.27,0-.55,0-.9,0v-.92c0-2.16,0-4.32,0-6.48a5,5,0,0,0-.09-1.16,3.3,3.3,0,0,0-3.59-2.47,3.2,3.2,0,0,0-2.93,3.11c0,2.37,0,4.74,0,7.11,0,.27,0,.54-.05.85H89.36a5.2,5.2,0,0,0-1.31.13,3.27,3.27,0,0,0-2.35,3.66,3.22,3.22,0,0,0,3.14,2.82c2.34,0,4.68,0,7,0,.28,0,.56,0,.9,0v.92c0,2.24,0,4.47,0,6.71a3.31,3.31,0,1,0,6.62,0c0-2.23,0-4.47,0-6.71Z"/><path class="cls-1" d="M31.67,168.85a37.89,37.89,0,0,1,5.83-4,22.37,22.37,0,0,1,10.29-2.77c6-.31,11.9-.49,17.85-.63a154.12,154.12,0,0,0,18-1.13,45,45,0,0,0,16.06-4.95.88.88,0,0,1,.76,0c5.07,2.86,10.6,4.2,16.29,5,7.08,1,14.21,1,21.33,1.16,4.78.1,9.56.35,14.34.56,6.12.27,11.34,2.71,16.12,6.85a8,8,0,0,1-2,.26,27.52,27.52,0,0,1-4.34-.85,44.84,44.84,0,0,0-10.64-1.89c-8.37-.6-16.74,0-25.11,0a126.62,126.62,0,0,1-15-.49,36.6,36.6,0,0,1-10.06-2.31,3.33,3.33,0,0,0-2.66,0,38.1,38.1,0,0,1-11.69,2.48c-8.54.7-17.1.23-25.65.1a108.71,108.71,0,0,0-16,.56,67.33,67.33,0,0,0-7.15,1.52c-1.87.46-3.69,1.13-5.66.81C32.33,169,32.08,169,31.67,168.85Z"/><path class="cls-1" d="M129.53,130h-59a14.05,14.05,0,0,1,3-5.95c1.49-1.69,3.18-3.2,4.82-4.74a1.63,1.63,0,0,1,1.06-.35q20.59,0,41.18,0a1.51,1.51,0,0,1,.88.2c3.49,2.62,6.35,5.75,7.8,10,.08.22.14.45.2.67A.52.52,0,0,1,129.53,130Z"/><path class="cls-1" d="M131.15,136.77c-.23,1.22-.4,2.37-.68,3.48-.08.3-.47.53-.76.74a26.72,26.72,0,0,1-8.53,3.72,80.11,80.11,0,0,1-21.69,2.52,78.72,78.72,0,0,1-21-2.67,29,29,0,0,1-7.63-3.29A2.83,2.83,0,0,1,69.35,139c-.08-.74-.17-1.47-.26-2.27Z"/><path class="cls-1" d="M100.07,43.46a7.76,7.76,0,1,1,7.79-7.77A7.78,7.78,0,0,1,100.07,43.46Z"/><path d="M103.39,83.42v.93c0,2.24,0,4.48,0,6.71a3.31,3.31,0,1,1-6.62,0c0-2.24,0-4.47,0-6.71v-.92c-.34,0-.62,0-.9,0-2.34,0-4.68,0-7,0a3.22,3.22,0,0,1-3.14-2.82,3.27,3.27,0,0,1,2.35-3.66,5.2,5.2,0,0,1,1.31-.13h7.35c0-.31.05-.58.05-.85,0-2.37,0-4.74,0-7.11a3.2,3.2,0,0,1,2.93-3.11,3.3,3.3,0,0,1,3.59,2.47,5,5,0,0,1,.09,1.16c0,2.16,0,4.32,0,6.48v.92c.35,0,.63,0,.9,0,2.34,0,4.68,0,7,0a3.22,3.22,0,0,1,3.15,2.82,3.27,3.27,0,0,1-2.35,3.66,5.25,5.25,0,0,1-1.31.13Z"/></svg>