<svg id="Laag_1" data-name="Laag 1" xmlns="http://www.w3.org/2000/svg" viewBox="0 0 200 200"><defs><style>.cls-1{fill:#fff;}</style></defs><path d="M99.76,100.86c-2.62,2.48-5.15,5-7.8,7.36A161.62,161.62,0,0,1,73.59,122.4a42.06,42.06,0,0,0-10.53,10.08c-1.22,1.65-2.47,3.29-3.82,4.83a11.12,11.12,0,0,1-10.71,3.84c-1.79-.28-2.73-1.57-3.49-3a14.06,14.06,0,0,1-.53-1.37l-3.72.29a16.79,16.79,0,0,1-8.46-1.25,13.55,13.55,0,0,1-7.09-8,30.59,30.59,0,0,1-1.72-13.34c.22-2.76,1.37-5.32,2.43-7.86A211.44,211.44,0,0,1,36.53,85.24q6.74-12.12,13.74-24.09a41.33,41.33,0,0,1,3.58-4.41,26.89,26.89,0,0,0,4.64-8.06,2,2,0,0,0-.15-1.75,14,14,0,0,1-1.76-6.56c0-2.34.06-4.67.12-7a3.15,3.15,0,0,1,1.15-2.31,5.87,5.87,0,0,1,6.31-1.15,12.61,12.61,0,0,1,4.48,3,43.57,43.57,0,0,1,6.15,7.84,1,1,0,0,0,1,.58c1.19,0,2.39,0,3.59,0a.88.88,0,0,0,.94-.58,31.36,31.36,0,0,1,10-11.48c3-2,5.83-1.4,7.82,1.57a15.77,15.77,0,0,1,2.22,6.43c.24,1.43.39,2.88.59,4.36,1.7.26,3.42.49,5.13.79a73.79,73.79,0,0,1,27.77,10.29,65.88,65.88,0,0,1,22,24,110.36,110.36,0,0,1,10.76,29.11,202.42,202.42,0,0,1,4.41,29.48,353.44,353.44,0,0,1,.93,38,3.33,3.33,0,0,1-3.46,3.43H67.4c-2.91,0-4.14-1.28-4.08-4.22a41.08,41.08,0,0,1,4.3-18.34,51.27,51.27,0,0,1,9.63-12.57c3.56-3.57,7.22-7,10.64-10.75a44,44,0,0,0,11.42-24.86c.21-1.62.33-3.26.49-4.88A.53.53,0,0,0,99.76,100.86ZM63.44,37.09l-.22.13c-.15,2.56-.12,5.1,1.43,7.32a4.61,4.61,0,0,1,.77,3.62A17,17,0,0,1,65,49.91a31.58,31.58,0,0,1-6,11,47.15,47.15,0,0,0-3.69,4.71Q49.16,76.17,43.22,86.85a237.89,237.89,0,0,0-11,22.07c-1.43,3.35-2.56,6.72-2,10.47.39,2.58.69,5.15,2,7.48a5.9,5.9,0,0,0,4.77,3.36,49.75,49.75,0,0,0,6-.08c.25,0,.62-.46.7-.76a7.17,7.17,0,0,0,.07-1.54,17.48,17.48,0,0,1,.2-3.17c.62-2.48,3.12-3.84,6-3.43,3.28.45,5,3,4.05,6.19-.43,1.41-1.13,2.73-1.7,4.1-.41,1-.81,2-1.27,3.09a4.38,4.38,0,0,0,3.29-1.75c1.27-1.52,2.48-3.08,3.66-4.66A45.21,45.21,0,0,1,68.71,117.7,162.67,162.67,0,0,0,92.22,98.87,52.36,52.36,0,0,0,101,88.1c1.42-2.42,2.53-4.93,2.26-7.87a3.29,3.29,0,0,1,6.5-.78,10,10,0,0,1,.17,2.32,20.23,20.23,0,0,1-3,9.47,2.39,2.39,0,0,0-.33,1.16,91.84,91.84,0,0,1-.41,12.3,59.08,59.08,0,0,1-3.41,14.6,54.86,54.86,0,0,1-12.92,19.17c-3.57,3.6-7.23,7.11-10.71,10.79a31.34,31.34,0,0,0-8,14.25c-.51,2.1-.79,4.26-1.19,6.47H165.4a4.57,4.57,0,0,0,0-.49A329.47,329.47,0,0,0,163.9,130a181.33,181.33,0,0,0-4.25-24.93,98.57,98.57,0,0,0-10.79-27.26A57.38,57.38,0,0,0,122.22,54,75.91,75.91,0,0,0,103,48.67c-1.59-.24-3.16-.61-4.75-.7-2.72-.15-3.77-1.13-3.92-3.83q-.16-2.84-.51-5.66a29.44,29.44,0,0,0-.69-3c-.53.45-.91.75-1.27,1.08a26.74,26.74,0,0,0-6.42,9A3.79,3.79,0,0,1,81.55,48Q77.7,48,73.83,48a3.91,3.91,0,0,1-3.65-2c-1.34-2.11-2.78-4.14-4.26-6.15A35.78,35.78,0,0,0,63.44,37.09Z"/><path class="cls-1" d="M63.44,37.09a35.78,35.78,0,0,1,2.48,2.75c1.48,2,2.92,4,4.26,6.15a3.91,3.91,0,0,0,3.65,2q3.87-.06,7.72,0a3.79,3.79,0,0,0,3.9-2.48,26.74,26.74,0,0,1,6.42-9c.36-.33.74-.63,1.27-1.08a29.44,29.44,0,0,1,.69,3q.35,2.82.51,5.66c.15,2.7,1.2,3.68,3.92,3.83,1.59.09,3.16.46,4.75.7A75.91,75.91,0,0,1,122.22,54a57.38,57.38,0,0,1,26.64,23.79,98.57,98.57,0,0,1,10.79,27.26A181.33,181.33,0,0,1,163.9,130a329.47,329.47,0,0,1,1.53,39.48,4.57,4.57,0,0,1,0,.49H70c.4-2.21.68-4.37,1.19-6.47a31.34,31.34,0,0,1,8-14.25c3.48-3.68,7.14-7.19,10.71-10.79a54.86,54.86,0,0,0,12.92-19.17,59.08,59.08,0,0,0,3.41-14.6,91.84,91.84,0,0,0,.41-12.3,2.39,2.39,0,0,1,.33-1.16,20.23,20.23,0,0,0,3-9.47,10,10,0,0,0-.17-2.32,3.29,3.29,0,0,0-6.5.78c.27,2.94-.84,5.45-2.26,7.87a52.36,52.36,0,0,1-8.8,10.77A162.67,162.67,0,0,1,68.71,117.7a45.21,45.21,0,0,0-10.77,10.52c-1.18,1.58-2.39,3.14-3.66,4.66A4.38,4.38,0,0,1,51,134.63c.46-1.11.86-2.11,1.27-3.09.57-1.37,1.27-2.69,1.7-4.1.95-3.19-.77-5.74-4.05-6.19-2.93-.41-5.43,1-6,3.43a17.48,17.48,0,0,0-.2,3.17,7.17,7.17,0,0,1-.07,1.54c-.08.3-.45.74-.7.76a49.75,49.75,0,0,1-6,.08,5.9,5.9,0,0,1-4.77-3.36c-1.28-2.33-1.58-4.9-2-7.48-.56-3.75.57-7.12,2-10.47a237.89,237.89,0,0,1,11-22.07q5.93-10.69,12.13-21.23A47.15,47.15,0,0,1,59,60.91a31.58,31.58,0,0,0,6-11,17,17,0,0,0,.38-1.75,4.61,4.61,0,0,0-.77-3.62c-1.55-2.22-1.58-4.76-1.43-7.32Zm8.14,28.14c0-3.51-1.93-5.54-4.67-5.32a6.26,6.26,0,0,0-3.64,1.78,19.47,19.47,0,0,0-4.57,6.43,13.74,13.74,0,0,0-1.43,5.06c-.15,2.66,1.32,4.72,3.7,5a5.23,5.23,0,0,0,4-1.3,18.34,18.34,0,0,0,5.13-6.85A13.17,13.17,0,0,0,71.58,65.23ZM40.06,107.92a5.54,5.54,0,0,0-5.58,5.51,5.55,5.55,0,1,0,11.09,0A5.54,5.54,0,0,0,40.06,107.92Z"/><path d="M71.58,65.23a13.17,13.17,0,0,1-1.44,4.85A18.34,18.34,0,0,1,65,76.93a5.23,5.23,0,0,1-4,1.3c-2.38-.33-3.85-2.39-3.7-5a13.74,13.74,0,0,1,1.43-5.06,19.47,19.47,0,0,1,4.57-6.43,6.26,6.26,0,0,1,3.64-1.78C69.65,59.69,71.6,61.72,71.58,65.23Z"/><path d="M40.06,107.92a5.54,5.54,0,0,1,5.51,5.51,5.55,5.55,0,1,1-11.09,0A5.54,5.54,0,0,1,40.06,107.92Z"/></svg>