<svg id="Laag_1" data-name="Laag 1" xmlns="http://www.w3.org/2000/svg" viewBox="0 0 200 200"><defs><style>.cls-1{fill:#fff;}</style></defs><path d="M128.64,116.37c4.39,4.34,7.4,9.29,7.88,15.74a14.86,14.86,0,0,0-.94-1.25,3.59,3.59,0,0,0-2.77-1H70.1c-.93,0-1.87,0-2.8,0a3.58,3.58,0,0,0-3.76,2.1c-.37-1.46.73-5.57,2.27-8.5a28.09,28.09,0,0,1,5.31-7c-1.57-1.21-3.21-2.3-4.65-3.62A27.25,27.25,0,0,1,58,96.52c-1.51-9.66.87-18.51,5.88-26.73A56.56,56.56,0,0,1,83.08,51.11c2.5-1.54,5.1-2.89,7.7-4.35a14.26,14.26,0,0,1-5.14-12.94,13.84,13.84,0,0,1,5.22-9.44A14.44,14.44,0,0,1,109,46.82c1.3.67,2.6,1.31,3.86,2a63.14,63.14,0,0,1,19.2,15.44A43.14,43.14,0,0,1,142,86.11c1.2,9.1-.55,17.49-6.56,24.69A24.33,24.33,0,0,1,128.64,116.37Zm-28.7,2.41h19.27c1,0,2,0,3,0a3.32,3.32,0,0,0,.46-6.6,6.56,6.56,0,0,0-1.17-.06H77.63a3.34,3.34,0,1,0,.32,6.67Zm3.31-35.52h1c2.21,0,4.42,0,6.63,0a3.31,3.31,0,1,0,0-6.62c-2.23,0-4.47,0-6.71,0h-.92V75.7c0-2.16,0-4.32,0-6.48a4.71,4.71,0,0,0-.14-1.3,3.3,3.3,0,0,0-6.47.81c0,2.34,0,4.68,0,7,0,.28,0,.55,0,.89h-.93c-2.21,0-4.42,0-6.63,0a3.31,3.31,0,1,0,0,6.62c2.24,0,4.48,0,6.71,0h.92v.94c0,2.32,0,4.63,0,6.94a3.3,3.3,0,0,0,6.6,0c0-1.67,0-3.33,0-5Z"/><path d="M136.51,132.35a9.31,9.31,0,0,1,1,5.57c-.14,1.39-.49,2.76-.76,4.13a5.65,5.65,0,0,1-2.22,3.37,28.43,28.43,0,0,1-10.56,5.16c-3.1.84-6.28,1.4-9.42,2.08a1.84,1.84,0,0,0-.69.26c.84.16,1.68.33,2.52.47s1.7.24,2.55.34c7.69.9,15.41.8,23.13,1a116.68,116.68,0,0,1,14.46,1,30.91,30.91,0,0,1,14.32,6.46,54,54,0,0,1,4.59,4.1,3.27,3.27,0,0,1,.29,4.64c-3.13,4.22-7.38,5.41-12.35,4.44-2-.4-4-1.13-6-1.59a51.72,51.72,0,0,0-11.7-1.08c-8.06,0-16.12.22-24.18.26a76.71,76.71,0,0,1-16.28-1.4c-1.59-.34-3.15-.85-4.73-1.26a1.59,1.59,0,0,0-.89,0,49.52,49.52,0,0,1-15.48,2.5c-8.55.1-17.1-.06-25.66-.11a76.84,76.84,0,0,0-14.14.81c-2.14.38-4.22,1.09-6.33,1.61-3.09.76-6.16,1-9.16-.38a11.26,11.26,0,0,1-4.87-4.24,3.19,3.19,0,0,1,.38-4,36,36,0,0,1,14.53-9.66,35.39,35.39,0,0,1,7.55-1.46c7.35-.85,14.74-.6,22.12-.8a110.87,110.87,0,0,0,16.68-1.42,3.44,3.44,0,0,0,1-.29c-1.24-.21-2.48-.4-3.71-.64-4.87-.94-9.65-2.17-14-4.69a37.91,37.91,0,0,1-4.28-3.21,2.32,2.32,0,0,1-.63-1,16.86,16.86,0,0,1-1.06-8.34c.14-.88.45-1.73.68-2.6l.2,0a8,8,0,0,0,0,1.09,3.32,3.32,0,0,0,3,3.07,6.78,6.78,0,0,0,.78,0h65.6a3.74,3.74,0,0,0,2.74-.9A3.5,3.5,0,0,0,136.51,132.35Z"/><rect class="cls-1" x="62.91" y="129.86" width="73.86" height="6.67" rx="3.34"/><path class="cls-1" d="M99.94,118.78H78a3.34,3.34,0,1,1-.32-6.67h43.83a6.56,6.56,0,0,1,1.17.06,3.32,3.32,0,0,1-.46,6.6c-1,0-2,0-3,0Z"/><path class="cls-1" d="M103.25,83.26v2.91c0,1.67,0,3.33,0,5a3.3,3.3,0,0,1-6.6,0c0-2.31,0-4.62,0-6.94v-.94H95.7c-2.23,0-4.47,0-6.71,0a3.31,3.31,0,1,1,0-6.62c2.21,0,4.42,0,6.63,0h.93c0-.34,0-.61,0-.89,0-2.34,0-4.68,0-7a3.3,3.3,0,0,1,6.47-.81,4.71,4.71,0,0,1,.14,1.3c0,2.16,0,4.32,0,6.48v.94h.92c2.24,0,4.48,0,6.71,0a3.31,3.31,0,1,1,0,6.62c-2.21,0-4.42,0-6.63,0Z"/></svg>