<svg id="Laag_1" data-name="Laag 1" xmlns="http://www.w3.org/2000/svg" viewBox="0 0 200 200"><defs><style>.cls-1{fill:#fff;}.cls-2{fill:none;stroke:#fff;stroke-linecap:round;stroke-miterlimit:10;stroke-width:7px;}</style></defs><path d="M82.19,75.66,82,72.51c-.46-6.18,1.88-11.38,5.67-16a17.19,17.19,0,0,1,8.49-5.94.78.78,0,0,0,.46-.56c0-3.59,0-7.17,0-10.76a1.41,1.41,0,0,0-.1-.29H89a3.33,3.33,0,1,1,0-6.66c2.34,0,4.68,0,7,0,.18,0,.36,0,.66,0v-2.4c0-1,0-2.08,0-3.12a3.31,3.31,0,0,1,6.61,0c0,.9,0,1.82,0,2.72V32.2l.86,0c2.29,0,4.58,0,6.86,0a3.28,3.28,0,0,1,3.2,2.29,3.1,3.1,0,0,1-1.11,3.61,4.54,4.54,0,0,1-2.23.73c-2.2.09-4.41,0-6.62,0h-.91V50.4c5.38,1.52,8.83,5.32,11.62,9.94s3.49,9.81,2.67,15.32c.32-.19.51-.29.69-.41a45.36,45.36,0,0,1,19.33-7.39c15-1.84,27,3.26,35.35,15.9,4.6,6.95,5.13,14.68,2.5,22.57a39.64,39.64,0,0,1-9.22,14.57,77.74,77.74,0,0,1-17.81,13.8,1.36,1.36,0,0,0-.81,1.39c0,3.9,0,7.8,0,11.74-.54-1.64-2-2.2-3.33-2.89A85.67,85.67,0,0,0,122,137.52a114.78,114.78,0,0,0-29.48-1.86,97.63,97.63,0,0,0-33.46,7.64,51,51,0,0,0-5,2.5,10.15,10.15,0,0,0-1.84,1.8c0-3.74,0-7.69,0-11.64a1.21,1.21,0,0,0-.71-1.21A75.13,75.13,0,0,1,31.92,119a36.07,36.07,0,0,1-8.33-15.48A24.88,24.88,0,0,1,26.09,85,33.7,33.7,0,0,1,45.43,69.22c9-2.91,17.88-2.11,26.63,1.17A49.13,49.13,0,0,1,82.19,75.66ZM52.35,132a7.9,7.9,0,0,0-.08,1.61,3.32,3.32,0,0,0,4.88,2.51c2.08-1,4.13-2.08,6.26-3A90.31,90.31,0,0,1,89.78,127a108.64,108.64,0,0,1,32.48,1.82,75.05,75.05,0,0,1,20.33,7.22,3.19,3.19,0,0,0,3.66-.2,3.1,3.1,0,0,0,1.25-3.44c-.12-.47.1-.62.43-.83,2.38-1.53,4.81-3,7.11-4.64a54.91,54.91,0,0,0,13.34-13c4.29-6.09,6.62-12.74,5.47-20.3a18.79,18.79,0,0,0-3-8.42A30,30,0,0,0,149.47,72.5a39.48,39.48,0,0,0-18.76,2.41,58.26,58.26,0,0,0-30.29,25.23l-.5.81-.36-.57A58.42,58.42,0,0,0,79.72,80.05c-7.47-4.65-15.51-7.61-24.4-7.78s-16.67,2.61-23,9A26.45,26.45,0,0,0,28,86.87a21.2,21.2,0,0,0-2.33,9.61,27.25,27.25,0,0,0,4.52,15.62,53.34,53.34,0,0,0,14.48,14.78C47.19,128.67,49.79,130.29,52.35,132Z"/><path d="M54.49,167.41a4.1,4.1,0,0,0,3.34-.59,76.75,76.75,0,0,1,20.92-7.16,107.62,107.62,0,0,1,27.92-1.85,91,91,0,0,1,31.5,7.15c1.42.62,2.81,1.33,4.19,2a3.79,3.79,0,0,0,2.93.42c-.21.19-.3.29-.4.36l-.4.25a78.69,78.69,0,0,1-24.07,9.09,99.45,99.45,0,0,1-27,1.87,87.15,87.15,0,0,1-34.27-8.91c-1.44-.72-2.82-1.56-4.22-2.34A3.65,3.65,0,0,1,54.49,167.41Z"/><path d="M147.6,149.55v13.74c-.52-1.37-1.7-2-2.88-2.58a84.08,84.08,0,0,0-21.58-7.43A113,113,0,0,0,97.2,151,102.35,102.35,0,0,0,62,157.65c-2.37.92-4.64,2.07-7,3.14a4.67,4.67,0,0,0-2.75,2.5V149.58l.29.55a3.38,3.38,0,0,0,4.63,1.52c3.14-1.44,6.25-3,9.47-4.17A85.72,85.72,0,0,1,86.08,143a108.33,108.33,0,0,1,19.22-.75c12.29.65,24.2,3,35.36,8.4.63.3,1.25.64,1.87,1a3.32,3.32,0,0,0,4.86-1.64C147.43,149.83,147.49,149.74,147.6,149.55Z"/><path class="cls-1" d="M52.35,132c-2.56-1.71-5.16-3.33-7.64-5.12A53.34,53.34,0,0,1,30.23,112.1a27.25,27.25,0,0,1-4.52-15.62A21.2,21.2,0,0,1,28,86.87a26.45,26.45,0,0,1,4.33-5.58c6.28-6.41,14.06-9.2,23-9s16.93,3.13,24.4,7.78a58.42,58.42,0,0,1,19.84,20.33l.36.57.5-.81a58.26,58.26,0,0,1,30.29-25.23,39.48,39.48,0,0,1,18.76-2.41,30,30,0,0,1,21.37,12.73,18.79,18.79,0,0,1,3,8.42c1.15,7.56-1.18,14.21-5.47,20.3A54.91,54.91,0,0,1,155,127c-2.3,1.64-4.73,3.11-7.11,4.64-.33.21-.55.36-.43.83a3.1,3.1,0,0,1-1.25,3.44,3.19,3.19,0,0,1-3.66.2,75.05,75.05,0,0,0-20.33-7.22A108.64,108.64,0,0,0,89.78,127a90.31,90.31,0,0,0-26.37,6.15c-2.13.87-4.18,1.94-6.26,3a3.32,3.32,0,0,1-4.88-2.51A7.9,7.9,0,0,1,52.35,132Zm44.5-12.15c-.08-.91-.22-1.8-.23-2.7,0-2.26,0-4.52,0-6.78a5.08,5.08,0,0,0-.37-1.8,48.43,48.43,0,0,0-13.37-18c-7.67-6.55-16.32-11-26.56-11.65-6.87-.45-13.1,1.33-18.23,6.09a18.84,18.84,0,0,0-4.13,5,16.38,16.38,0,0,0-1.16,11.1,26.34,26.34,0,0,0,6.32,11.74c5.46,6.26,12.16,10.89,19.46,14.72a1.37,1.37,0,0,0,.93,0c3.72-1.29,7.4-2.74,11.17-3.86a90.49,90.49,0,0,1,17.66-3.24C91.18,120.23,94.06,120.05,96.85,119.85Zm6.13.05.46,0c4.11.35,8.25.55,12.34,1.06a89.65,89.65,0,0,1,24.58,6.6,1.13,1.13,0,0,0,1.15,0c2.75-1.68,5.58-3.22,8.24-5a50.08,50.08,0,0,0,13.12-12.31c3.3-4.63,5.3-9.67,4.39-15.47a15,15,0,0,0-1.63-5.22,20.76,20.76,0,0,0-7.43-7.2c-5.83-3.47-12.13-4.06-18.67-2.92a44.43,44.43,0,0,0-17.66,7.44,50.41,50.41,0,0,0-18.24,21.72,4.79,4.79,0,0,0-.38,1.79c0,2.29,0,4.58,0,6.87C103.21,118.09,103.07,119,103,119.9Z"/><path d="M96.85,119.85c-2.79.2-5.67.38-8.54.63a90.49,90.49,0,0,0-17.66,3.24c-3.77,1.12-7.45,2.57-11.17,3.86a1.37,1.37,0,0,1-.93,0c-7.3-3.83-14-8.46-19.46-14.72a26.34,26.34,0,0,1-6.32-11.74,16.38,16.38,0,0,1,1.16-11.1,18.84,18.84,0,0,1,4.13-5c5.13-4.76,11.36-6.54,18.23-6.09,10.24.66,18.89,5.1,26.56,11.65a48.43,48.43,0,0,1,13.37,18,5.08,5.08,0,0,1,.37,1.8c0,2.26,0,4.52,0,6.78C96.63,118.05,96.77,118.94,96.85,119.85Z"/><path d="M103,119.9c.09-.94.23-1.81.25-2.67,0-2.29,0-4.58,0-6.87a4.79,4.79,0,0,1,.38-1.79,50.41,50.41,0,0,1,18.24-21.72,44.43,44.43,0,0,1,17.66-7.44c6.54-1.14,12.84-.55,18.67,2.92a20.76,20.76,0,0,1,7.43,7.2,15,15,0,0,1,1.63,5.22c.91,5.8-1.09,10.84-4.39,15.47a50.08,50.08,0,0,1-13.12,12.31c-2.66,1.8-5.49,3.34-8.24,5a1.13,1.13,0,0,1-1.15,0,89.65,89.65,0,0,0-24.58-6.6c-4.09-.51-8.23-.71-12.34-1.06Z"/><path class="cls-2" d="M52.25,166.42S67,154,99.94,154s47.66,12.39,47.66,12.39"/><path class="cls-2" d="M52.25,151S67,138.59,99.94,138.59,147.6,151,147.6,151"/></svg>