<svg id="Laag_1" data-name="Laag 1" xmlns="http://www.w3.org/2000/svg" viewBox="0 0 200 200"><defs><style>.cls-1{fill:#fff;}</style></defs><path d="M34.71,62.61C42.89,75.14,51,87.54,59.06,99.94l.19,0c.34-15.92.68-31.84,1-47.57a42.11,42.11,0,0,1-4.53-2.07,12.18,12.18,0,1,1,18.73-9,11.64,11.64,0,0,1-5.66,9.14c-.5.32-.65.55-.42,1.16q8.55,22.29,17.07,44.6c.08.21.18.42.37.85,3.46-16.73,6.88-33.25,10.29-49.76a12.25,12.25,0,0,1,4.1-23.82,12.23,12.23,0,0,1,3.83,23.8l10.26,49.58.14,0q.85-2.21,1.7-4.42Q123.92,72,131.71,51.7c.26-.67.21-1-.44-1.41-4.21-2.81-6.17-6.82-5.5-11.82a11.45,11.45,0,0,1,8.79-10.14A12.13,12.13,0,0,1,150,40.54a12.27,12.27,0,0,1-9.24,11.34l-.89.21,1,47.81.18.06q12.15-18.61,24.24-37.17a39.16,39.16,0,0,1-2.41-3.13,12.08,12.08,0,0,1,.43-13.31,12.19,12.19,0,1,1,10.9,19.15c-.66,0-.9.25-1,.92q-4.39,22.17-8.83,44.33c-.56,2.8-.89,5.64-1.43,8.44a13.51,13.51,0,0,1-3.81,6.86c-1.57,1.63-3.23,3.18-4.7,4.89a34.56,34.56,0,0,0-2.42,3.62c-.88,1.31-1.73,2.65-2.68,3.92a3.63,3.63,0,0,0-.68,3c.31,1.63.6,3.27.94,4.89a1.83,1.83,0,0,0,.56.89,13.05,13.05,0,0,1,4.61,11.17,1.79,1.79,0,0,0,.38,1,10.5,10.5,0,0,1,2.23,7.05,9.65,9.65,0,0,1-6.18,8,158.88,158.88,0,0,1-54.89,8.41,159.49,159.49,0,0,1-25.8-2.73,156.3,156.3,0,0,1-21.08-5.52c-6.43-2.18-8.66-9-4.76-14.69a3.73,3.73,0,0,0,.68-2.35,12.63,12.63,0,0,1,4.43-10.15,2.44,2.44,0,0,0,.85-1.5c.27-1.77.63-3.53.89-5.3a2.11,2.11,0,0,0-.23-1.34c-2-3-3.85-6-6-8.83a38.19,38.19,0,0,0-4-4.13,15.2,15.2,0,0,1-4.53-10.06,65.22,65.22,0,0,0-1.41-7.66q-3.86-19.29-7.72-38.59c-.24-1.22-.54-2.44-.72-3.67-.1-.64-.33-.84-1-.9a11.89,11.89,0,0,1-10.27-7.17,12.19,12.19,0,1,1,19.5,3.9A4.47,4.47,0,0,1,34.71,62.61ZM101.19,179.3a144.54,144.54,0,0,0,18.21-1.16,154.36,154.36,0,0,0,26.72-5.66c2.8-.86,5.58-1.81,8.35-2.77a3.31,3.31,0,0,0,2.24-3.16,3.38,3.38,0,0,0-2.22-3.11,3.76,3.76,0,0,0-2.66.14,151.33,151.33,0,0,1-38.16,8.47,150.79,150.79,0,0,1-24.23.23,155,155,0,0,1-24.25-3.68A162.52,162.52,0,0,1,48,163.49a3.32,3.32,0,1,0-2.15,6.28,158.94,158.94,0,0,0,31,7.82A160.82,160.82,0,0,0,101.19,179.3ZM100,116.87a159.4,159.4,0,0,0-19.83,1.26A149.1,149.1,0,0,0,59,122.32c-3.65,1-7.25,2.19-10.87,3.32a3.33,3.33,0,0,0-.82,6,3.7,3.7,0,0,0,3.44.14A151.31,151.31,0,0,1,88.76,124a153.29,153.29,0,0,1,24.71.17,147.93,147.93,0,0,1,26.73,4.8c3.27.9,6.5,2,9.74,3a3.34,3.34,0,1,0,2-6.37A158.93,158.93,0,0,0,100,116.87Zm.14,47.58a157.63,157.63,0,0,0,26.47-2.23,152.7,152.7,0,0,0,23-5.71,4.61,4.61,0,0,0,1.82-1.11,3.29,3.29,0,0,0-3.32-5.35c-3.38,1-6.71,2-10.1,2.93a148.14,148.14,0,0,1-29.07,4.56,153,153,0,0,1-19-.1,152.86,152.86,0,0,1-19.77-2.63,154.52,154.52,0,0,1-17.69-4.67,3.33,3.33,0,1,0-2,6.34,159,159,0,0,0,28.9,6.59A159.76,159.76,0,0,0,100.17,164.45Zm-.16-21.2h43.77a11.43,11.43,0,0,0,1.17,0,3.31,3.31,0,0,0,2.82-3.82c-.34-1.81-1.64-2.78-3.74-2.78H56.16c-.31,0-.63,0-.93,0a3.31,3.31,0,0,0-2.82,3.82c.33,1.79,1.63,2.78,3.66,2.78Z"/><path class="cls-1" d="M101.19,179.3a160.82,160.82,0,0,1-24.33-1.71,158.94,158.94,0,0,1-31-7.82A3.32,3.32,0,1,1,48,163.49a162.52,162.52,0,0,0,17.16,5.11,155,155,0,0,0,24.25,3.68,150.79,150.79,0,0,0,24.23-.23,151.33,151.33,0,0,0,38.16-8.47,3.76,3.76,0,0,1,2.66-.14,3.38,3.38,0,0,1,2.22,3.11,3.31,3.31,0,0,1-2.24,3.16c-2.77,1-5.55,1.91-8.35,2.77a154.36,154.36,0,0,1-26.72,5.66A144.54,144.54,0,0,1,101.19,179.3Z"/><path class="cls-1" d="M100,116.87a158.93,158.93,0,0,1,51.88,8.71,3.34,3.34,0,1,1-2,6.37c-3.24-1-6.47-2.11-9.74-3a147.93,147.93,0,0,0-26.73-4.8A153.29,153.29,0,0,0,88.76,124a151.31,151.31,0,0,0-38.05,7.82,3.7,3.7,0,0,1-3.44-.14,3.33,3.33,0,0,1,.82-6c3.62-1.13,7.22-2.3,10.87-3.32a149.1,149.1,0,0,1,21.24-4.19A159.4,159.4,0,0,1,100,116.87Z"/><path class="cls-1" d="M100.17,164.45a159.76,159.76,0,0,1-20.85-1.38,159,159,0,0,1-28.9-6.59,3.33,3.33,0,1,1,2-6.34,154.52,154.52,0,0,0,17.69,4.67,152.86,152.86,0,0,0,19.77,2.63,153,153,0,0,0,19,.1A148.14,148.14,0,0,0,138,153c3.39-.89,6.72-2,10.1-2.93a3.29,3.29,0,0,1,3.32,5.35,4.61,4.61,0,0,1-1.82,1.11,152.7,152.7,0,0,1-23,5.71A157.63,157.63,0,0,1,100.17,164.45Z"/><path class="cls-1" d="M100,143.25H56.07c-2,0-3.33-1-3.66-2.78a3.31,3.31,0,0,1,2.82-3.82c.3,0,.62,0,.93,0H144c2.1,0,3.4,1,3.74,2.78a3.31,3.31,0,0,1-2.82,3.82,11.43,11.43,0,0,1-1.17,0Z"/></svg>