<svg id="Laag_1" data-name="Laag 1" xmlns="http://www.w3.org/2000/svg" viewBox="0 0 200 200"><defs><style>.cls-1{fill:#fff;}</style></defs><path d="M50.13,156.6V142.4a3.35,3.35,0,0,1,3.24-3.58,1,1,0,0,0,.66-.4q2.41-4,4.77-8a1.76,1.76,0,0,0,.21-.88q0-27,0-54.08a1.4,1.4,0,0,0-.45-1Q52.84,69.74,47.09,65a3.66,3.66,0,0,1-1.42-3.28c0-.34,0-.68,0-1V40.66c0-2.69,1.22-3.93,3.89-3.93H66.37c2.44,0,3.74,1.31,3.74,3.76v5H85.66V42.1c0-.65,0-1.3,0-2a3.26,3.26,0,0,1,3.45-3.41c3.72,0,7.44,0,11.16,0h10.54a3.33,3.33,0,0,1,3.69,3.65c0,1.64,0,3.28,0,4.92a.81.81,0,0,0,.06.22h15.48V42c0-.6,0-1.2,0-1.8a3.28,3.28,0,0,1,3.42-3.44c4.17,0,8.33,0,12.49,0h4.68c2.56,0,3.81,1.26,3.81,3.85,0,6.71,0,13.42,0,20.13,0,.34,0,.68,0,1A3.56,3.56,0,0,1,153.13,65l-11.47,9.52a1.24,1.24,0,0,0-.53,1.11q0,27,0,53.92a2.36,2.36,0,0,0,.33,1.16q2.25,3.84,4.57,7.62a1.25,1.25,0,0,0,.81.54,3.34,3.34,0,0,1,3.16,3.43c0,4.47,0,8.94,0,13.42v.93h9.57c2.46,0,3.74,1.29,3.74,3.76,0,4.08-.08,8.17,0,12.25.07,2.71-1.72,4-4,4q-52.51,0-105,0c-4.55,0-9.1-.05-13.66,0a3.59,3.59,0,0,1-3.89-3.91c.1-4.11,0-8.22,0-12.33,0-2.47,1.28-3.76,3.73-3.76h9.57Zm50-92.14h50a9.8,9.8,0,0,0,1.33,0,2.13,2.13,0,0,0,1.84-2c.08-1.46-.93-2.37-2.62-2.37H48.9a2.21,2.21,0,0,0-2.08,2.14,2.15,2.15,0,0,0,2,2.26,10,10,0,0,0,1.09,0Zm-.08,95.46h46a8.29,8.29,0,0,0,.86,0,2.24,2.24,0,0,0,2-2.2,2.2,2.2,0,0,0-2-2.19c-.34,0-.68,0-1,0H54.12a7.39,7.39,0,0,0-.94,0,2.18,2.18,0,0,0-.45,4.24,3.92,3.92,0,0,0,1.23.15ZM100,142.14h41.58c.28,0,.57,0,.85,0a2.21,2.21,0,0,0,.35-4.34,5.57,5.57,0,0,0-1.16-.06H58.54c-.26,0-.52,0-.78,0a2.17,2.17,0,0,0-2.06,2.14,2.2,2.2,0,0,0,2.49,2.26Zm.16-71H62.94a6.77,6.77,0,0,0-.78,0,2.25,2.25,0,0,0-2,2,2.18,2.18,0,0,0,1.45,2.32,4.37,4.37,0,0,0,1.3.15h74.36a5.86,5.86,0,0,0,.94,0,2.19,2.19,0,0,0,.26-4.27,4.36,4.36,0,0,0-1.15-.12ZM100,133.27h37.06c.31,0,.62,0,.93,0a2.2,2.2,0,0,0,0-4.39c-.31,0-.62,0-.93,0H63a8.29,8.29,0,0,0-.86,0,2.23,2.23,0,0,0-2,2,2.19,2.19,0,0,0,1.49,2.3,4.81,4.81,0,0,0,1.31.12Z"/><path class="cls-1" d="M100.16,64.46H49.91a10,10,0,0,1-1.09,0,2.15,2.15,0,0,1-2-2.26A2.21,2.21,0,0,1,48.9,60H150.71c1.69,0,2.7.91,2.62,2.37a2.13,2.13,0,0,1-1.84,2,9.8,9.8,0,0,1-1.33,0Z"/><path class="cls-1" d="M100.08,159.92H54a3.92,3.92,0,0,1-1.23-.15,2.18,2.18,0,0,1,.45-4.24,7.39,7.39,0,0,1,.94,0h91.76c.34,0,.68,0,1,0a2.2,2.2,0,0,1,2,2.19,2.24,2.24,0,0,1-2,2.2,8.29,8.29,0,0,1-.86,0Z"/><path class="cls-1" d="M100,142.14H58.19a2.2,2.2,0,0,1-2.49-2.26,2.17,2.17,0,0,1,2.06-2.14c.26,0,.52,0,.78,0h83.08a5.57,5.57,0,0,1,1.16.06,2.21,2.21,0,0,1-.35,4.34c-.28,0-.57,0-.85,0Z"/><path class="cls-1" d="M100.16,71.12H137.3a4.36,4.36,0,0,1,1.15.12,2.19,2.19,0,0,1-.26,4.27,5.86,5.86,0,0,1-.94,0H62.89a4.37,4.37,0,0,1-1.3-.15,2.18,2.18,0,0,1-1.45-2.32,2.25,2.25,0,0,1,2-2,6.77,6.77,0,0,1,.78,0Z"/><path class="cls-1" d="M100,133.27H62.93a4.81,4.81,0,0,1-1.31-.12,2.19,2.19,0,0,1-1.49-2.3,2.23,2.23,0,0,1,2-2,8.29,8.29,0,0,1,.86,0H137c.31,0,.62,0,.93,0a2.2,2.2,0,0,1,0,4.39c-.31,0-.62,0-.93,0Z"/></svg>