<svg id="Laag_1" data-name="Laag 1" xmlns="http://www.w3.org/2000/svg" viewBox="0 0 200 200"><defs><style>.cls-1{fill:#fff;}</style></defs><path d="M34.65,62.66Q46.8,81.27,58.91,99.87l.21,0q.51-23.85,1-47.68C59.07,51.79,58,51.5,57,51a12.19,12.19,0,1,1,11.71-.71c-.52.32-.7.56-.46,1.21Q76.82,73.8,85.32,96.09c.08.22.18.42.35.8L87,90.68Q91.38,69.32,95.81,48c.12-.58.1-.87-.57-1.15A12.18,12.18,0,0,1,99,23.45a12.18,12.18,0,0,1,5.53,23.43l-.65.27c3.42,16.54,6.83,33.05,10.29,49.76.18-.41.3-.65.39-.9q8.5-22.22,17-44.43c.25-.64.12-.93-.45-1.27a12.18,12.18,0,1,1,9.45,1.55l-.86.22q.51,23.91,1,47.77l.19.05,24.14-37a33,33,0,0,1-2.94-4.44,11.48,11.48,0,0,1,1.65-12.85,12.15,12.15,0,0,1,21.33,5.61,12.06,12.06,0,0,1-11.15,14.28c-.56,0-.79.2-.9.79Q168.2,90.63,163.31,115c-.28,1.4-.29,2.85-.58,4.24a13.57,13.57,0,0,1-3.8,6.77c-1.55,1.61-3.15,3.17-4.66,4.82a19.64,19.64,0,0,0-1.78,2.45c-1.13,1.71-2.18,3.48-3.35,5.16a3.65,3.65,0,0,0-.67,2.93c.31,1.66.61,3.32,1,5a1.59,1.59,0,0,0,.51.82,13,13,0,0,1,4.64,11.22,1.64,1.64,0,0,0,.36,1,10,10,0,0,1,2.22,7.19,9.5,9.5,0,0,1-4.61,7.23,6.89,6.89,0,0,1-2.76.68c-10.38,1.48-20.81,2.28-31.28,2.73q-17.74.77-35.47.08c-9.87-.37-19.72-1.08-29.52-2.33-1.65-.21-3.31-.41-4.93-.73a4.87,4.87,0,0,1-2-.91c-4.48-3.52-5.21-9.05-1.82-13.68a2.58,2.58,0,0,0,.5-1.78,12.74,12.74,0,0,1,4.38-10.4,2.46,2.46,0,0,0,.89-1.55c.27-1.77.63-3.53.9-5.3a2,2,0,0,0-.22-1.27c-2-3-3.91-6.06-6.06-9a41.13,41.13,0,0,0-4.07-4.18,15,15,0,0,1-4.39-9.87,56.32,56.32,0,0,0-1.26-6.89q-3.69-18.52-7.4-37c-.4-2-.83-4-1.18-6-.12-.65-.33-.89-1-.94a12.12,12.12,0,0,1-11-9.48,12.19,12.19,0,1,1,20.24,6.24Zm63.81,108.4c7.84-.22,14.21-.28,20.57-.61,6.85-.35,13.69-.9,20.52-1.46,3.1-.25,6.19-.73,9.28-1.13a1.64,1.64,0,0,0,.9-.36,2.37,2.37,0,0,0,.57-2.91,11.28,11.28,0,0,0-1.6-2.28,3.66,3.66,0,0,1-.93-3.51,6.17,6.17,0,0,0-1.84-6.26,3,3,0,0,0-1.54-.77c-4.76-.62-9.52-1.35-14.31-1.72-7-.54-14.1-1-21.16-1.17a305.33,305.33,0,0,0-52.34,2.7,4.13,4.13,0,0,0-2.72.95,6.28,6.28,0,0,0-1.81,6.06,4,4,0,0,1-1.13,4,7.53,7.53,0,0,0-1.45,2.19,2.19,2.19,0,0,0,1.87,3.15c7.23.75,14.46,1.67,21.71,2.13C82,170.6,91,170.77,98.46,171.06Zm57.67-52.91a363.35,363.35,0,0,0-112.59,0A26.15,26.15,0,0,0,45,120.53a17.38,17.38,0,0,0,1.8,1.94A39.06,39.06,0,0,1,52.56,129a1,1,0,0,0,.75.26c4.22-.5,8.44-1.23,12.68-1.51,7.72-.51,15.46-1,23.2-1.07,10.06-.12,20.12,0,30.17.25a179.1,179.1,0,0,1,27.16,2.35.74.74,0,0,0,.87-.39,18.51,18.51,0,0,1,1.69-2.24c1.62-1.75,3.32-3.44,5-5.17A7.76,7.76,0,0,0,156.13,118.15ZM57.54,144.71a312.27,312.27,0,0,1,42.38-2.64,312.62,312.62,0,0,1,42.26,2.62c-.15-1.61-.37-3.14-.43-4.69a8,8,0,0,1,1.35-4.47c-8.6-3-80.49-3-86.36.06C58.68,138.43,58.16,141.53,57.54,144.71ZM100,61.36h-.2q-4.74,22.9-9.47,45.79h19.14C106.32,91.81,103.17,76.58,100,61.36Zm-17.48,46.1Q74.59,86.69,66.67,66l-.17,0q-.47,21.3-.91,42.64Zm51.71.75q-.45-21.08-.9-42.22h-.19l-15.78,41.3ZM35.8,76.61l-.14.06,7,34.88,14.62-2Q46.51,93,35.8,76.61Zm128.38,0-.13-.05-21.16,32.45,14.36,2.28Q160.72,94,164.18,76.65Zm-102-42.17a5.55,5.55,0,1,0,5.53,5.59A5.54,5.54,0,0,0,62.23,34.48ZM26.72,47.81a5.54,5.54,0,1,0,5.53,5.55A5.53,5.53,0,0,0,26.72,47.81Zm140.88,5.5a5.54,5.54,0,1,0,5.58-5.5A5.54,5.54,0,0,0,167.6,53.31ZM143.16,40.07a5.54,5.54,0,1,0-5.59,5.5A5.53,5.53,0,0,0,143.16,40.07Zm-43.3,1.06a5.54,5.54,0,1,0-5.48-5.55A5.55,5.55,0,0,0,99.86,41.13Z"/><path class="cls-1" d="M98.46,171.06c-7.5-.29-16.47-.46-25.41-1-7.25-.46-14.48-1.38-21.71-2.13a2.19,2.19,0,0,1-1.87-3.15,7.53,7.53,0,0,1,1.45-2.19,4,4,0,0,0,1.13-4,6.28,6.28,0,0,1,1.81-6.06,4.13,4.13,0,0,1,2.72-.95,305.33,305.33,0,0,1,52.34-2.7c7.06.2,14.12.63,21.16,1.17,4.79.37,9.55,1.1,14.31,1.72a3,3,0,0,1,1.54.77,6.17,6.17,0,0,1,1.84,6.26,3.66,3.66,0,0,0,.93,3.51,11.28,11.28,0,0,1,1.6,2.28,2.37,2.37,0,0,1-.57,2.91,1.64,1.64,0,0,1-.9.36c-3.09.4-6.18.88-9.28,1.13-6.83.56-13.67,1.11-20.52,1.46C112.67,170.78,106.3,170.84,98.46,171.06Z"/><path class="cls-1" d="M156.13,118.15a7.76,7.76,0,0,1-2.08,3.33c-1.65,1.73-3.35,3.42-5,5.17a18.51,18.51,0,0,0-1.69,2.24.74.74,0,0,1-.87.39,179.1,179.1,0,0,0-27.16-2.35c-10-.24-20.11-.37-30.17-.25-7.74.1-15.48.56-23.2,1.07-4.24.28-8.46,1-12.68,1.51a1,1,0,0,1-.75-.26,39.06,39.06,0,0,0-5.78-6.53,17.38,17.38,0,0,1-1.8-1.94,26.15,26.15,0,0,1-1.44-2.35A363.35,363.35,0,0,1,156.13,118.15Z"/><path class="cls-1" d="M57.54,144.71c.62-3.18,1.14-6.28-.8-9.12,5.87-3,77.76-3.09,86.36-.06a8,8,0,0,0-1.35,4.47c.06,1.55.28,3.08.43,4.69a312.62,312.62,0,0,0-42.26-2.62A312.27,312.27,0,0,0,57.54,144.71Z"/><path class="cls-1" d="M100,61.36c3.15,15.22,6.3,30.45,9.47,45.79H90.35q4.74-22.89,9.47-45.79Z"/><path class="cls-1" d="M82.54,107.46l-17,1.17Q66,87.27,66.5,66l.17,0Q74.59,86.7,82.54,107.46Z"/><path class="cls-1" d="M134.25,108.21l-16.87-.93L133.16,66h.19Q133.8,87.13,134.25,108.21Z"/><path class="cls-1" d="M35.8,76.61Q46.53,93,57.26,109.52l-14.62,2-7-34.88Z"/><path class="cls-1" d="M164.18,76.65l-6.93,34.68-14.36-2.28L164.05,76.6Z"/><path class="cls-1" d="M62.23,34.48A5.55,5.55,0,1,1,56.68,40,5.57,5.57,0,0,1,62.23,34.48Z"/><path class="cls-1" d="M26.72,47.81a5.54,5.54,0,1,1,0,11.08,5.54,5.54,0,0,1,0-11.08Z"/><path class="cls-1" d="M167.6,53.31a5.54,5.54,0,0,1,11.08,0,5.54,5.54,0,1,1-11.08,0Z"/><path class="cls-1" d="M143.16,40.07a5.54,5.54,0,1,1-5.51-5.59A5.53,5.53,0,0,1,143.16,40.07Z"/><path class="cls-1" d="M99.86,41.13a5.54,5.54,0,1,1,5.61-5.5A5.56,5.56,0,0,1,99.86,41.13Z"/></svg>