<svg id="Laag_1" data-name="Laag 1" xmlns="http://www.w3.org/2000/svg" viewBox="0 0 200 200"><defs><style>.cls-1{fill:#fff;}</style></defs><path d="M69.88,45.74H85.37c0-.27,0-.55,0-.82,0-1.51,0-3,0-4.52a3.27,3.27,0,0,1,3.48-3.47h21.83a3.27,3.27,0,0,1,3.5,3.52c0,1.74,0,3.48,0,5.28h15.53V40.66c0-2.41,1.31-3.73,3.7-3.73h17c2.4,0,3.69,1.3,3.7,3.71v20.2c0,.5.08,1,.06,1.48A3.93,3.93,0,0,1,153,65.06c-3.92,3.87-7.81,7.78-11.69,11.69a1.42,1.42,0,0,0-.39.94q0,26,0,52a2.11,2.11,0,0,0,.28,1q2.29,3.9,4.66,7.75a1.17,1.17,0,0,0,.76.48,3.35,3.35,0,0,1,3.17,3.49c0,4.45,0,8.89,0,13.34v.94h9.63a3.31,3.31,0,0,1,3.66,3.67q0,6.31,0,12.63a3.34,3.34,0,0,1-3.69,3.66h-119A3.36,3.36,0,0,1,36.62,173q0-6.27,0-12.55c0-2.41,1.3-3.69,3.72-3.69h9.57v-14c0-2.26,1.05-3.43,3.31-3.75a.94.94,0,0,0,.58-.39q2.41-4,4.77-7.95a1.81,1.81,0,0,0,.22-.89q0-26,0-52a1.61,1.61,0,0,0-.42-1Q52.5,70.82,46.61,65a3.66,3.66,0,0,1-1.15-3.16c0-.31,0-.62,0-.93q0-10.14,0-20.28a3.31,3.31,0,0,1,2.36-3.52,4.67,4.67,0,0,1,1.24-.14H66.24a3.33,3.33,0,0,1,3.64,3.63Zm64.28,30.08H65.5v52h68.66Zm-82-16.76h95.34V43.62h-11v.92c0,1.48,0,3,0,4.45a3.26,3.26,0,0,1-3.2,3.43q-11.23,0-22.46,0a3.18,3.18,0,0,1-3.15-3.13c0-1.61,0-3.22,0-4.83v-.83H92.05c0,1.83,0,3.59,0,5.36a3.28,3.28,0,0,1-3.49,3.45H66.73A3.31,3.31,0,0,1,63.22,49c0-1.51,0-3,0-4.52,0-.28,0-.56,0-.84h-11Zm4.47,97.6H143V145.72H56.61Zm99.75,6.74H43.3V170H156.36Zm-22.29-32.18H65.58c-.89,2.85-2.89,5.05-4.13,7.68H138.2C136.93,136.25,135,134.05,134.07,131.22ZM56.86,65.8c2.23,2.23,4.3,4.3,6.4,6.35a1.33,1.33,0,0,0,.85.23q35.72,0,71.42,0a1.72,1.72,0,0,0,1.08-.43c1.88-1.83,3.72-3.7,5.58-5.56.15-.15.29-.33.51-.58Z"/><path class="cls-1" d="M134.16,75.82v52H65.5v-52Z"/><path class="cls-1" d="M52.14,59.06V43.62h11c0,.28,0,.56,0,.84,0,1.5,0,3,0,4.52a3.31,3.31,0,0,0,3.51,3.45H88.56A3.28,3.28,0,0,0,92.05,49c0-1.77,0-3.53,0-5.36H107.6v.83c0,1.61,0,3.22,0,4.83a3.18,3.18,0,0,0,3.15,3.13q11.24,0,22.46,0a3.26,3.26,0,0,0,3.2-3.43c0-1.48,0-3,0-4.45v-.92h11V59.06Z"/><path class="cls-1" d="M56.61,156.66V145.72H143v10.94Z"/><path class="cls-1" d="M156.36,163.4V170H43.3V163.4Z"/><path class="cls-1" d="M134.07,131.22c.89,2.83,2.86,5,4.13,7.68H61.45c1.24-2.63,3.24-4.83,4.13-7.68Z"/><path class="cls-1" d="M56.86,65.8H142.7c-.22.25-.36.43-.51.58-1.86,1.86-3.7,3.73-5.58,5.56a1.72,1.72,0,0,1-1.08.43q-35.72,0-71.42,0a1.33,1.33,0,0,1-.85-.23C61.16,70.1,59.09,68,56.86,65.8Z"/></svg>