<svg id="Laag_1" data-name="Laag 1" xmlns="http://www.w3.org/2000/svg" viewBox="0 0 200 200"><defs><style>.cls-1{fill:#fff;}</style></defs><path d="M147.65,170H52.54a1.2,1.2,0,0,1-.07-.27c-.29-12.83,1.89-25.11,8.13-36.48a49.82,49.82,0,0,1,16.11-18c.74-.49,1.5-.93,2.3-1.41a27.68,27.68,0,0,1-6.93-21.75c.9-8.2,4.9-14.69,11.48-19.7a18.43,18.43,0,0,1-.62-15.19,18.07,18.07,0,0,1,7.3-8.77,18.5,18.5,0,0,1,26.37,24c6.54,5,10.56,11.47,11.46,19.7s-1.54,15.41-6.92,21.74l1.37.83a46.68,46.68,0,0,1,13.79,13.35,63.12,63.12,0,0,1,10.27,25.64,86.59,86.59,0,0,1,1.11,15.92C147.69,169.74,147.67,169.85,147.65,170Zm-89.34-5.86h83.47c0-.26,0-.49,0-.71-.17-2-.29-4-.54-6.05a59,59,0,0,0-6.73-21.2,46.65,46.65,0,0,0-11.84-14.33,32.31,32.31,0,0,0-10.58-5.39c-.63-.21-1.25-.46-2-.72,1.52-1.25,3-2.38,4.37-3.59,5.87-5.08,8.58-11.54,7.8-19.24-.76-7.55-4.69-13.21-11.2-17.08L108.4,74.3c0-.11,0-.16,0-.2.65-.9,1.35-1.78,2-2.71,2.95-4.52,3.17-9.18.45-13.85a12.5,12.5,0,0,0-12.58-5.95A12.67,12.67,0,0,0,89.83,71.5c.55.78,1.12,1.55,1.68,2.33a4.68,4.68,0,0,1,.27.46L88.67,76.1a22.21,22.21,0,0,0-7.24,31.39A29.38,29.38,0,0,0,87.89,114c.7.55,1.39,1.13,2.1,1.71-.11.09-.14.13-.18.14-.57.21-1.14.45-1.73.63a32.05,32.05,0,0,0-13.22,7.66,50.86,50.86,0,0,0-12.52,19.3,63.75,63.75,0,0,0-3.65,15.71C58.52,160.81,58.44,162.46,58.31,164.17Z"/><path class="cls-1" d="M58.31,164.17c.13-1.71.21-3.36.38-5a63.75,63.75,0,0,1,3.65-15.71,50.86,50.86,0,0,1,12.52-19.3,32.05,32.05,0,0,1,13.22-7.66c.59-.18,1.16-.42,1.73-.63,0,0,.07,0,.18-.14-.71-.58-1.4-1.16-2.1-1.71a29.38,29.38,0,0,1-6.46-6.52A22.21,22.21,0,0,1,88.67,76.1l3.11-1.81a4.68,4.68,0,0,0-.27-.46c-.56-.78-1.13-1.55-1.68-2.33a12.67,12.67,0,0,1,8.44-19.91,12.5,12.5,0,0,1,12.58,5.95c2.72,4.67,2.5,9.33-.45,13.85-.6.93-1.3,1.81-2,2.71,0,0,0,.09,0,.2l2.68,1.56c6.51,3.87,10.44,9.53,11.2,17.08.78,7.7-1.93,14.16-7.8,19.24-1.39,1.21-2.85,2.34-4.37,3.59.72.26,1.34.51,2,.72a32.31,32.31,0,0,1,10.58,5.39,46.65,46.65,0,0,1,11.84,14.33,59,59,0,0,1,6.73,21.2c.25,2,.37,4,.54,6.05,0,.22,0,.45,0,.71Z"/></svg>