<svg id="Laag_1" data-name="Laag 1" xmlns="http://www.w3.org/2000/svg" viewBox="0 0 200 200"><defs><style>.cls-1{fill:#fff;}</style></defs><path d="M154.4,178.85H45.79a2.37,2.37,0,0,1-.08-.31c-.32-14.64,2.17-28.67,9.29-41.64a56.77,56.77,0,0,1,18.4-20.54c.84-.56,1.71-1.06,2.62-1.61-6.14-7.19-8.94-15.45-7.91-24.83s5.6-16.78,13.1-22.5a21.1,21.1,0,0,1-.7-17.35,20.59,20.59,0,0,1,8.34-10A21.12,21.12,0,0,1,119,67.43c7.47,5.68,12.06,13.09,13.09,22.49s-1.76,17.6-7.91,24.82l1.57,1a53.5,53.5,0,0,1,15.75,15.25,72.22,72.22,0,0,1,11.72,29.27,98.87,98.87,0,0,1,1.27,18.18C154.45,178.52,154.42,178.65,154.4,178.85Zm-102-6.69h95.3c0-.3,0-.55,0-.81-.2-2.3-.34-4.61-.62-6.9a67.64,67.64,0,0,0-7.68-24.22,53.23,53.23,0,0,0-13.53-16.35,36.84,36.84,0,0,0-12.07-6.17c-.73-.23-1.44-.51-2.26-.81,1.74-1.43,3.4-2.72,5-4.1,6.71-5.8,9.81-13.18,8.91-22-.87-8.62-5.35-15.08-12.79-19.49-1-.61-2-1.2-3-1.78,0-.13,0-.19,0-.23.74-1,1.53-2,2.23-3.1,3.37-5.16,3.61-10.49.51-15.81A14.25,14.25,0,0,0,98,43.61a14.47,14.47,0,0,0-9.64,22.74c.64.88,1.29,1.76,1.93,2.65.11.16.19.34.31.54L87.05,71.6a25.35,25.35,0,0,0-8.26,35.84,33.56,33.56,0,0,0,7.37,7.44c.81.64,1.59,1.3,2.4,2a1.56,1.56,0,0,1-.2.16c-.66.24-1.31.52-2,.71a36.63,36.63,0,0,0-15.09,8.75,58,58,0,0,0-14.3,22,72.89,72.89,0,0,0-4.17,17.94C52.62,168.32,52.53,170.21,52.39,172.16Z"/><path class="cls-1" d="M52.39,172.16c.14-1.95.23-3.84.43-5.72A72.89,72.89,0,0,1,57,148.5a58,58,0,0,1,14.3-22,36.63,36.63,0,0,1,15.09-8.75c.67-.19,1.32-.47,2-.71a1.56,1.56,0,0,0,.2-.16c-.81-.66-1.59-1.32-2.4-2a33.56,33.56,0,0,1-7.37-7.44A25.35,25.35,0,0,1,87.05,71.6l3.56-2.06c-.12-.2-.2-.38-.31-.54-.64-.89-1.29-1.77-1.93-2.65A14.47,14.47,0,0,1,98,43.61a14.25,14.25,0,0,1,14.37,6.8c3.1,5.32,2.86,10.65-.51,15.81-.7,1.06-1.49,2.07-2.23,3.1,0,0,0,.1,0,.23,1,.58,2,1.17,3,1.78,7.44,4.41,11.92,10.87,12.79,19.49.9,8.8-2.2,16.18-8.91,22-1.59,1.38-3.25,2.67-5,4.1.82.3,1.53.58,2.26.81a36.84,36.84,0,0,1,12.07,6.17,53.23,53.23,0,0,1,13.53,16.35,67.64,67.64,0,0,1,7.68,24.22c.28,2.29.42,4.6.62,6.9,0,.26,0,.51,0,.81Z"/></svg>